<svg width="15" height="18" viewBox="0 0 15 18" fill="none" xmlns="http://www.w3.org/2000/svg">
<path d="M1.04155 18C0.605898 18 0.292225 17.8498 0.100536 17.5494C-0.0737265 17.2323 -0.0214477 16.9068 0.257373 16.573L6.26944 8.81224L0.623324 1.47705C0.327078 1.10987 0.266086 0.776078 0.440349 0.47566C0.632037 0.158553 0.928284 0 1.32909 0C1.76475 0 2.15684 0.225313 2.50536 0.675938L7.52413 7.26008L12.5168 0.675938C12.8479 0.225313 13.2312 0 13.6669 0C14.0851 0 14.3814 0.158553 14.5556 0.47566C14.7473 0.776078 14.695 1.10987 14.3988 1.47705L8.72654 8.81224L14.7647 16.573C15.0261 16.9068 15.0697 17.2323 14.8954 17.5494C14.7212 17.8498 14.4162 18 13.9806 18C13.5449 18 13.1528 17.7747 12.8043 17.3241L7.49799 10.3644L2.19169 17.3241C1.86059 17.7747 1.47721 18 1.04155 18Z" fill="white"/>
</svg>
