<svg width="52" height="52" viewBox="0 0 52 52" fill="none" xmlns="http://www.w3.org/2000/svg">
<path d="M19.9176 51V45.3379C18.5484 45.5656 15.4523 45.8846 14.0212 45.3379C12.2325 44.6545 11.5037 43.6457 10.8743 42.4743C10.2449 41.3028 10.1787 39.4479 7.52862 38.2114C5.68296 37.3502 9.1849 37.5606 10.1787 38.2114C11.1724 38.8622 11.1327 39.487 12.0337 40.8147C13.16 42.4743 15.8763 44.0361 19.9176 42.3765C19.7851 41.1399 20.4145 39.4478 22.1039 38.667C18.3276 38.4609 11.106 37.107 10.013 29.9133C9.35053 25.5528 9.74804 22.7217 12.365 19.5654C11.4374 17.1574 11.6362 14.2286 12.6962 13.1547C13.269 12.5745 17.5215 14.2503 19.4207 15.7581C20.1274 15.411 22.7267 14.7491 25.8802 14.7491C29.8222 14.7491 30.9484 15.14 32.3397 15.7581C35.1223 13.5451 38.3686 12.6016 39.0974 13.1548C39.8261 13.7081 40.5549 16.7473 39.4949 19.5328C40.9193 21.0623 42.1778 23.8331 41.9793 27.668C41.7805 31.5077 40.3893 34.1808 37.4079 36.4866C35.9551 37.6103 31.4453 38.5365 29.4247 38.5365C30.1424 38.8511 31.7766 40.6453 31.7766 42.0511C31.7766 43.4569 31.7766 48.4401 31.7766 51" stroke="#02ECD1"/>
<circle cx="26" cy="26" r="25.25" stroke="white" stroke-width="1.5"/>
</svg>
