<svg width="78" height="78" viewBox="0 0 78 78" fill="none" xmlns="http://www.w3.org/2000/svg">
<circle cx="39" cy="39" r="39" fill="#030C27"/>
<path d="M19.095 42L16.512 39.138V42H15.693V35.727H16.512V38.634L19.104 35.727H20.139L17.295 38.868L20.166 42H19.095ZM25.5807 39.345C25.5807 39.501 25.5717 39.666 25.5537 39.84H21.6117C21.6417 40.326 21.8067 40.707 22.1067 40.983C22.4127 41.253 22.7817 41.388 23.2137 41.388C23.5677 41.388 23.8617 41.307 24.0957 41.145C24.3357 40.977 24.5037 40.755 24.5997 40.479H25.4817C25.3497 40.953 25.0857 41.34 24.6897 41.64C24.2937 41.934 23.8017 42.081 23.2137 42.081C22.7457 42.081 22.3257 41.976 21.9537 41.766C21.5877 41.556 21.2997 41.259 21.0897 40.875C20.8797 40.485 20.7747 40.035 20.7747 39.525C20.7747 39.015 20.8767 38.568 21.0807 38.184C21.2847 37.8 21.5697 37.506 21.9357 37.302C22.3077 37.092 22.7337 36.987 23.2137 36.987C23.6817 36.987 24.0957 37.089 24.4557 37.293C24.8157 37.497 25.0917 37.779 25.2837 38.139C25.4817 38.493 25.5807 38.895 25.5807 39.345ZM24.7347 39.174C24.7347 38.862 24.6657 38.595 24.5277 38.373C24.3897 38.145 24.2007 37.974 23.9607 37.86C23.7267 37.74 23.4657 37.68 23.1777 37.68C22.7637 37.68 22.4097 37.812 22.1157 38.076C21.8277 38.34 21.6627 38.706 21.6207 39.174H24.7347ZM27.4808 37.869C27.6248 37.587 27.8288 37.368 28.0928 37.212C28.3628 37.056 28.6898 36.978 29.0738 36.978V37.824H28.8578C27.9398 37.824 27.4808 38.322 27.4808 39.318V42H26.6618V37.068H27.4808V37.869ZM30.8382 37.869C30.9822 37.587 31.1862 37.368 31.4502 37.212C31.7202 37.056 32.0472 36.978 32.4312 36.978V37.824H32.2152C31.2972 37.824 30.8382 38.322 30.8382 39.318V42H30.0192V37.068H30.8382V37.869ZM37.6246 37.068L34.6546 44.322H33.8086L34.7806 41.946L32.7916 37.068H33.7006L35.2486 41.064L36.7786 37.068H37.6246ZM45.6623 42L44.8433 41.172C44.5373 41.49 44.2103 41.727 43.8623 41.883C43.5143 42.033 43.1213 42.108 42.6833 42.108C42.2513 42.108 41.8673 42.03 41.5313 41.874C41.2013 41.718 40.9433 41.496 40.7573 41.208C40.5773 40.92 40.4873 40.584 40.4873 40.2C40.4873 39.762 40.6103 39.378 40.8563 39.048C41.1083 38.712 41.4773 38.448 41.9633 38.256C41.7713 38.028 41.6333 37.818 41.5493 37.626C41.4653 37.434 41.4233 37.224 41.4233 36.996C41.4233 36.732 41.4893 36.495 41.6213 36.285C41.7593 36.069 41.9543 35.901 42.2063 35.781C42.4583 35.661 42.7493 35.601 43.0793 35.601C43.4033 35.601 43.6853 35.664 43.9253 35.79C44.1653 35.916 44.3453 36.093 44.4653 36.321C44.5853 36.543 44.6393 36.792 44.6273 37.068H43.8083C43.8143 36.822 43.7453 36.63 43.6013 36.492C43.4573 36.348 43.2713 36.276 43.0433 36.276C42.8033 36.276 42.6083 36.345 42.4583 36.483C42.3143 36.615 42.2423 36.786 42.2423 36.996C42.2423 37.176 42.2903 37.35 42.3863 37.518C42.4883 37.686 42.6563 37.893 42.8903 38.139L44.7623 40.02L44.9243 39.768L45.5363 38.742H46.4183L45.6803 40.02C45.5783 40.2 45.4583 40.389 45.3203 40.587L46.7333 42H45.6623ZM42.6833 41.406C43.0073 41.406 43.2983 41.343 43.5563 41.217C43.8203 41.091 44.0693 40.896 44.3033 40.632L42.4583 38.778C41.6903 39.072 41.3063 39.537 41.3063 40.173C41.3063 40.527 41.4323 40.821 41.6843 41.055C41.9423 41.289 42.2753 41.406 42.6833 41.406ZM49.594 38.859C49.594 38.247 49.732 37.698 50.008 37.212C50.284 36.72 50.659 36.336 51.133 36.06C51.613 35.784 52.144 35.646 52.726 35.646C53.41 35.646 54.007 35.811 54.517 36.141C55.027 36.471 55.399 36.939 55.633 37.545H54.652C54.478 37.167 54.226 36.876 53.896 36.672C53.572 36.468 53.182 36.366 52.726 36.366C52.288 36.366 51.895 36.468 51.547 36.672C51.199 36.876 50.926 37.167 50.728 37.545C50.53 37.917 50.431 38.355 50.431 38.859C50.431 39.357 50.53 39.795 50.728 40.173C50.926 40.545 51.199 40.833 51.547 41.037C51.895 41.241 52.288 41.343 52.726 41.343C53.182 41.343 53.572 41.244 53.896 41.046C54.226 40.842 54.478 40.551 54.652 40.173H55.633C55.399 40.773 55.027 41.238 54.517 41.568C54.007 41.892 53.41 42.054 52.726 42.054C52.144 42.054 51.613 41.919 51.133 41.649C50.659 41.373 50.284 40.992 50.008 40.506C49.732 40.02 49.594 39.471 49.594 38.859ZM59.0032 42.081C58.5412 42.081 58.1212 41.976 57.7432 41.766C57.3712 41.556 57.0772 41.259 56.8612 40.875C56.6512 40.485 56.5462 40.035 56.5462 39.525C56.5462 39.021 56.6542 38.577 56.8702 38.193C57.0922 37.803 57.3922 37.506 57.7702 37.302C58.1482 37.092 58.5712 36.987 59.0392 36.987C59.5072 36.987 59.9302 37.092 60.3082 37.302C60.6862 37.506 60.9832 37.8 61.1992 38.184C61.4212 38.568 61.5322 39.015 61.5322 39.525C61.5322 40.035 61.4182 40.485 61.1902 40.875C60.9682 41.259 60.6652 41.556 60.2812 41.766C59.8972 41.976 59.4712 42.081 59.0032 42.081ZM59.0032 41.361C59.2972 41.361 59.5732 41.292 59.8312 41.154C60.0892 41.016 60.2962 40.809 60.4522 40.533C60.6142 40.257 60.6952 39.921 60.6952 39.525C60.6952 39.129 60.6172 38.793 60.4612 38.517C60.3052 38.241 60.1012 38.037 59.8492 37.905C59.5972 37.767 59.3242 37.698 59.0302 37.698C58.7302 37.698 58.4542 37.767 58.2022 37.905C57.9562 38.037 57.7582 38.241 57.6082 38.517C57.4582 38.793 57.3832 39.129 57.3832 39.525C57.3832 39.927 57.4552 40.266 57.5992 40.542C57.7492 40.818 57.9472 41.025 58.1932 41.163C58.4392 41.295 58.7092 41.361 59.0032 41.361ZM62.87 42.054C62.714 42.054 62.582 42 62.474 41.892C62.366 41.784 62.312 41.652 62.312 41.496C62.312 41.34 62.366 41.208 62.474 41.1C62.582 40.992 62.714 40.938 62.87 40.938C63.02 40.938 63.146 40.992 63.248 41.1C63.356 41.208 63.41 41.34 63.41 41.496C63.41 41.652 63.356 41.784 63.248 41.892C63.146 42 63.02 42.054 62.87 42.054Z" fill="white"/>
</svg>
