<svg width="77" height="78" viewBox="0 0 77 78" fill="none" xmlns="http://www.w3.org/2000/svg">
<ellipse cx="38.5" cy="39" rx="38.5" ry="39" fill="#2D0049"/>
<path d="M30.1276 30.619L34.8369 29.9841L32.5777 40.5873C33.5959 40.5026 34.5293 40.0582 35.3778 39.254C36.2476 38.4497 36.9264 37.455 37.4143 36.2698C37.9022 35.0847 38.1461 33.9206 38.1461 32.7778C38.1461 31.5079 37.8173 30.4709 37.1597 29.6667C36.5021 28.8624 35.5157 28.4603 34.2005 28.4603C31.6125 28.4603 29.5867 29.1376 28.123 30.4921C26.6805 31.8466 25.9592 33.7407 25.9592 36.1746C25.9592 36.9577 26.0335 37.5079 26.182 37.8254C26.3305 38.1217 26.4047 38.291 26.4047 38.3333C25.2592 38.3333 24.4001 38.1005 23.8273 37.6349C23.2758 37.1481 23 36.3545 23 35.254C23 33.8995 23.5515 32.5873 24.6546 31.3175C25.7789 30.0265 27.2108 28.9894 28.9503 28.2064C30.6897 27.4021 32.4292 27 34.1687 27C35.8445 27 37.2446 27.2857 38.3689 27.8571C39.4932 28.4286 40.3205 29.1905 40.8508 30.1429C41.4023 31.0741 41.6781 32.1111 41.6781 33.254C41.6781 34.6296 41.2963 35.9735 40.5326 37.2857C39.7901 38.5979 38.7189 39.6772 37.3188 40.5238C35.9188 41.3492 34.3066 41.7619 32.4822 41.7619H32.3231L30.3821 50.8095H25.8001L30.1276 30.619Z" fill="white"/>
<path d="M45.2814 51C43.8389 51 42.7359 50.6508 41.9722 49.9524C41.2085 49.2328 40.8267 48.2275 40.8267 46.9365C40.8267 46.3016 40.9009 45.6984 41.0494 45.127L44.4541 29.2222L49.1634 28.5873L47.6361 35.7302C48.23 35.3704 48.7179 35.1376 49.0998 35.0317C49.4816 34.9048 49.8635 34.8413 50.2453 34.8413C52.7484 34.8413 54 36.6508 54 40.2698C54 41.7302 53.7136 43.2963 53.1409 44.9683C52.5893 46.619 51.656 48.037 50.3407 49.2222C49.0467 50.4074 47.3603 51 45.2814 51ZM47.0633 47.9206C47.7209 47.9206 48.3361 47.5185 48.9089 46.7143C49.4816 45.8889 49.9377 44.873 50.2771 43.6667C50.6165 42.4392 50.7862 41.2646 50.7862 40.1429C50.7862 39.2963 50.6377 38.5767 50.3407 37.9841C50.0438 37.3915 49.6301 37.0952 49.0998 37.0952C48.7816 37.0952 48.421 37.1481 48.0179 37.254C47.6361 37.3386 47.3709 37.4762 47.2224 37.6667L45.4723 45.7302C45.4087 45.9841 45.3769 46.2275 45.3769 46.4603C45.3769 47.4339 45.939 47.9206 47.0633 47.9206Z" fill="white"/>
</svg>
