<svg width="78" height="78" viewBox="0 0 78 78" fill="none" xmlns="http://www.w3.org/2000/svg">
<circle cx="39" cy="39" r="39" fill="#030C27"/>
<path d="M38.6478 27.9623H38.6167L38.5858 27.9662C37.0611 28.1568 34.5092 29.0965 32.1103 30.1043C29.69 31.1212 27.3483 32.2413 26.21 32.8375C25.5349 33.1911 25.1171 33.716 24.9442 34.3324C24.7754 34.9345 24.8531 35.5754 25.0693 36.1632C25.4967 37.3254 26.5197 38.4294 27.7079 38.8864C28.2788 39.106 29.164 39.3033 30.1359 39.4766C31.1188 39.6518 32.2272 39.8086 33.2652 39.9397C34.3041 40.0708 35.2768 40.1766 35.9896 40.2497C36.2681 40.2782 36.5071 40.3018 36.6951 40.3199C36.6333 45.486 37.157 56.4451 38.5155 63.4953C25.2081 63.2372 14.5 52.3691 14.5 39C14.5 25.469 25.469 14.5 39 14.5C52.531 14.5 63.5 25.469 63.5 39C63.5 42.7907 62.6395 46.379 61.1035 49.5815C58.9281 49.9916 57.0511 50.3327 55.5155 50.4014C53.9102 50.4733 52.8202 50.238 52.1593 49.6184C51.9172 49.3914 51.6974 49.0272 51.494 48.4972C51.2921 47.9712 51.1209 47.3216 50.9531 46.5583C50.832 46.0075 50.7119 45.3911 50.5828 44.7289C50.3623 43.5975 50.1157 42.3321 49.7933 41.0298C48.7728 36.9082 46.9296 32.0952 42.388 28.252C42.4026 28.1172 42.4205 27.9376 42.4385 27.7236C42.4794 27.2349 42.5205 26.5629 42.5205 25.8324C42.5205 25.104 42.4797 24.3053 42.3527 23.5669C42.2274 22.839 42.01 22.1172 41.6219 21.5835C41.4442 21.3392 41.2507 21.1334 41.0316 21.0108C40.7882 20.8747 40.4989 20.8378 40.2251 20.9769C39.9903 21.0962 39.8446 21.3081 39.7522 21.4852C39.6546 21.6723 39.5806 21.8912 39.5218 22.1121C39.4038 22.5549 39.3263 23.0866 39.2668 23.57C39.2418 23.7725 39.2204 23.963 39.2006 24.1388C39.1711 24.4008 39.1452 24.6302 39.117 24.8185C39.0636 25.1743 39.0493 25.588 39.0379 25.9779C39.0369 26.0108 39.036 26.0436 39.0351 26.0763C39.0245 26.4433 39.0145 26.7927 38.9817 27.1075C38.9449 27.4596 38.885 27.7024 38.8068 27.8455C38.7713 27.9104 38.7425 27.9352 38.7284 27.9445C38.7186 27.951 38.6986 27.9623 38.6478 27.9623Z" stroke="white"/>
</svg>
