<svg width="78" height="78" viewBox="0 0 78 78" fill="none" xmlns="http://www.w3.org/2000/svg">
<circle cx="39" cy="39" r="39" fill="#030C27"/>
<path d="M18.808 47.28H27.64L22.552 33.288L17.2 48H16.432L22.552 31.176L28.672 48H18.808V47.28ZM32.9656 31.92L39.7576 44.712C40.5576 43.384 40.9576 41.808 40.9576 39.984H41.6776C41.6776 42.224 41.1816 44.072 40.1896 45.528L41.5096 48H40.6936L39.7096 46.128C38.5256 47.456 37.0056 48.12 35.1496 48.12C33.8696 48.12 32.7496 47.632 31.7896 46.656C30.8296 45.664 30.3496 44.32 30.3496 42.624C30.3496 41.296 30.7736 40.192 31.6216 39.312C32.4696 38.432 33.6616 37.888 35.1976 37.68L31.7656 31.2H40.9576V31.92H32.9656ZM39.3016 45.384L35.5816 38.376C34.2376 38.552 33.1496 39.032 32.3176 39.816C31.4856 40.6 31.0696 41.536 31.0696 42.624C31.0696 43.984 31.4856 45.12 32.3176 46.032C33.1496 46.944 34.0936 47.4 35.1496 47.4C36.8456 47.4 38.2296 46.728 39.3016 45.384ZM45.9721 31.92V31.2H62.0281L55.9081 48.024L52.7881 39.48L49.6921 48.024L43.5721 31.2H44.3401L49.6921 45.912L52.7881 37.368L55.9081 45.912L60.9961 31.92H45.9721Z" fill="white"/>
</svg>
