<svg width="55" height="55" viewBox="0 0 55 55" fill="none" xmlns="http://www.w3.org/2000/svg">
<path d="M33.5842 23.7068C36.087 28.0525 37.6086 32.3884 38.0598 35.8725C38.2856 37.6157 38.24 39.1202 37.9346 40.2971C37.6298 41.4717 37.0786 42.2805 36.3184 42.7183C35.5583 43.1561 34.582 43.227 33.4131 42.9011C32.2419 42.5746 30.9177 41.859 29.5232 40.7889C26.736 38.6502 23.7493 35.1581 21.2465 30.8124C18.7437 26.4667 17.2221 22.1308 16.7709 18.6467C16.5452 16.9034 16.5907 15.399 16.8961 14.2221C17.2009 13.0475 17.7521 12.2387 18.5123 11.8009C19.2725 11.3631 20.2487 11.2922 21.4176 11.618C22.5889 11.9445 23.913 12.6601 25.3075 13.7303C28.0947 15.869 31.0814 19.3611 33.5842 23.7068Z" stroke="white"/>
<path d="M33.5842 23.7068C36.087 28.0525 37.6086 32.3884 38.0598 35.8725C38.2856 37.6157 38.24 39.1202 37.9346 40.2971C37.6298 41.4717 37.0786 42.2805 36.3184 42.7183C35.5583 43.1561 34.582 43.227 33.4131 42.9011C32.2419 42.5746 30.9177 41.859 29.5232 40.7889C26.736 38.6502 23.7493 35.1581 21.2465 30.8124C18.7437 26.4667 17.2221 22.1308 16.7709 18.6467C16.5452 16.9034 16.5907 15.399 16.8961 14.2221C17.2009 13.0475 17.7521 12.2387 18.5123 11.8009C19.2725 11.3631 20.2487 11.2922 21.4176 11.618C22.5889 11.9445 23.913 12.6601 25.3075 13.7303C28.0947 15.869 31.0814 19.3611 33.5842 23.7068Z" stroke="white"/>
<path d="M33.5842 23.7068C36.087 28.0525 37.6086 32.3884 38.0598 35.8725C38.2856 37.6157 38.24 39.1202 37.9346 40.2971C37.6298 41.4717 37.0786 42.2805 36.3184 42.7183C35.5583 43.1561 34.582 43.227 33.4131 42.9011C32.2419 42.5746 30.9177 41.859 29.5232 40.7889C26.736 38.6502 23.7493 35.1581 21.2465 30.8124C18.7437 26.4667 17.2221 22.1308 16.7709 18.6467C16.5452 16.9034 16.5907 15.399 16.8961 14.2221C17.2009 13.0475 17.7521 12.2387 18.5123 11.8009C19.2725 11.3631 20.2487 11.2922 21.4176 11.618C22.5889 11.9445 23.913 12.6601 25.3075 13.7303C28.0947 15.869 31.0814 19.3611 33.5842 23.7068Z" stroke="white"/>
<path d="M33.5691 30.839C31.0478 35.174 28.0462 38.6533 25.25 40.7802C23.8509 41.8444 22.5237 42.5543 21.3511 42.8758C20.1808 43.1966 19.2048 43.1216 18.4466 42.6806C17.6883 42.2396 17.1405 41.4284 16.8407 40.2525C16.5404 39.0743 16.5012 37.5697 16.7344 35.8274C17.2004 32.3452 18.7405 28.0159 21.2618 23.6809C23.7831 19.3459 26.7847 15.8666 29.5809 13.7397C30.98 12.6756 32.3072 11.9656 33.4798 11.6441C34.6501 11.3233 35.626 11.3983 36.3843 11.8393C37.1426 12.2804 37.6904 13.0915 37.9902 14.2674C38.2905 15.4456 38.3297 16.9502 38.0965 18.6925C37.6304 22.1747 36.0904 26.504 33.5691 30.839Z" stroke="white"/>
<path d="M33.5691 30.839C31.0478 35.174 28.0462 38.6533 25.25 40.7802C23.8509 41.8444 22.5237 42.5543 21.3511 42.8758C20.1808 43.1966 19.2048 43.1216 18.4466 42.6806C17.6883 42.2396 17.1405 41.4284 16.8407 40.2525C16.5404 39.0743 16.5012 37.5697 16.7344 35.8274C17.2004 32.3452 18.7405 28.0159 21.2618 23.6809C23.7831 19.3459 26.7847 15.8666 29.5809 13.7397C30.98 12.6756 32.3072 11.9656 33.4798 11.6441C34.6501 11.3233 35.626 11.3983 36.3843 11.8393C37.1426 12.2804 37.6904 13.0915 37.9902 14.2674C38.2905 15.4456 38.3297 16.9502 38.0965 18.6925C37.6304 22.1747 36.0904 26.504 33.5691 30.839Z" stroke="white"/>
<path d="M33.5691 30.839C31.0478 35.174 28.0462 38.6533 25.25 40.7802C23.8509 41.8444 22.5237 42.5543 21.3511 42.8758C20.1808 43.1966 19.2048 43.1216 18.4466 42.6806C17.6883 42.2396 17.1405 41.4284 16.8407 40.2525C16.5404 39.0743 16.5012 37.5697 16.7344 35.8274C17.2004 32.3452 18.7405 28.0159 21.2618 23.6809C23.7831 19.3459 26.7847 15.8666 29.5809 13.7397C30.98 12.6756 32.3072 11.9656 33.4798 11.6441C34.6501 11.3233 35.626 11.3983 36.3843 11.8393C37.1426 12.2804 37.6904 13.0915 37.9902 14.2674C38.2905 15.4456 38.3297 16.9502 38.0965 18.6925C37.6304 22.1747 36.0904 26.504 33.5691 30.839Z" stroke="white"/>
<path d="M27.4876 34.3782C22.473 34.429 17.9479 33.6294 14.6901 32.3145C13.06 31.6566 11.7711 30.8793 10.8951 30.0362C10.0208 29.1947 9.58606 28.3177 9.57717 27.4405C9.56828 26.5633 9.98516 25.6778 10.8422 24.8187C11.701 23.9579 12.9739 23.1547 14.5903 22.4639C17.8208 21.0833 22.3287 20.1922 27.3433 20.1413C32.3579 20.0905 36.883 20.8901 40.1408 22.205C41.7709 22.8629 43.0598 23.6402 43.9358 24.4834C44.8101 25.3249 45.2448 26.2019 45.2537 27.079C45.2626 27.9562 44.8457 28.8418 43.9887 29.7009C43.1299 30.5616 41.857 31.3649 40.2406 32.0557C37.0101 33.4363 32.5022 34.3274 27.4876 34.3782Z" stroke="white"/>
<path d="M27.4876 34.3782C22.473 34.429 17.9479 33.6294 14.6901 32.3145C13.06 31.6566 11.7711 30.8793 10.8951 30.0362C10.0208 29.1947 9.58606 28.3177 9.57717 27.4405C9.56828 26.5633 9.98516 25.6778 10.8422 24.8187C11.701 23.9579 12.9739 23.1547 14.5903 22.4639C17.8208 21.0833 22.3287 20.1922 27.3433 20.1413C32.3579 20.0905 36.883 20.8901 40.1408 22.205C41.7709 22.8629 43.0598 23.6402 43.9358 24.4834C44.8101 25.3249 45.2448 26.2019 45.2537 27.079C45.2626 27.9562 44.8457 28.8418 43.9887 29.7009C43.1299 30.5616 41.857 31.3649 40.2406 32.0557C37.0101 33.4363 32.5022 34.3274 27.4876 34.3782Z" stroke="white"/>
<path d="M27.4876 34.3782C22.473 34.429 17.9479 33.6294 14.6901 32.3145C13.06 31.6566 11.7711 30.8793 10.8951 30.0362C10.0208 29.1947 9.58606 28.3177 9.57717 27.4405C9.56828 26.5633 9.98516 25.6778 10.8422 24.8187C11.701 23.9579 12.9739 23.1547 14.5903 22.4639C17.8208 21.0833 22.3287 20.1922 27.3433 20.1413C32.3579 20.0905 36.883 20.8901 40.1408 22.205C41.7709 22.8629 43.0598 23.6402 43.9358 24.4834C44.8101 25.3249 45.2448 26.2019 45.2537 27.079C45.2626 27.9562 44.8457 28.8418 43.9887 29.7009C43.1299 30.5616 41.857 31.3649 40.2406 32.0557C37.0101 33.4363 32.5022 34.3274 27.4876 34.3782Z" stroke="white"/>
<path d="M30.5226 27.1216C30.5226 28.7982 29.2037 30.1338 27.6053 30.1338C26.007 30.1338 24.688 28.7982 24.688 27.1216C24.688 25.445 26.007 24.1094 27.6053 24.1094C29.2037 24.1094 30.5226 25.445 30.5226 27.1216Z" stroke="#02ECD1"/>
<path d="M33.5842 23.7068C36.087 28.0525 37.6086 32.3884 38.0598 35.8725C38.2856 37.6157 38.24 39.1202 37.9346 40.2971C37.6298 41.4717 37.0786 42.2805 36.3184 42.7183C35.5583 43.1561 34.582 43.227 33.4131 42.9011C32.2419 42.5746 30.9177 41.859 29.5232 40.7889C26.736 38.6502 23.7493 35.1581 21.2465 30.8124C18.7437 26.4667 17.2221 22.1308 16.7709 18.6467C16.5452 16.9034 16.5907 15.399 16.8961 14.2221C17.2009 13.0475 17.7521 12.2387 18.5123 11.8009C19.2725 11.3631 20.2487 11.2922 21.4176 11.618C22.5889 11.9445 23.913 12.6601 25.3075 13.7303C28.0947 15.869 31.0814 19.3611 33.5842 23.7068Z" stroke="white"/>
<path d="M33.5842 23.7068C36.087 28.0525 37.6086 32.3884 38.0598 35.8725C38.2856 37.6157 38.24 39.1202 37.9346 40.2971C37.6298 41.4717 37.0786 42.2805 36.3184 42.7183C35.5583 43.1561 34.582 43.227 33.4131 42.9011C32.2419 42.5746 30.9177 41.859 29.5232 40.7889C26.736 38.6502 23.7493 35.1581 21.2465 30.8124C18.7437 26.4667 17.2221 22.1308 16.7709 18.6467C16.5452 16.9034 16.5907 15.399 16.8961 14.2221C17.2009 13.0475 17.7521 12.2387 18.5123 11.8009C19.2725 11.3631 20.2487 11.2922 21.4176 11.618C22.5889 11.9445 23.913 12.6601 25.3075 13.7303C28.0947 15.869 31.0814 19.3611 33.5842 23.7068Z" stroke="white"/>
<path d="M33.5842 23.7068C36.087 28.0525 37.6086 32.3884 38.0598 35.8725C38.2856 37.6157 38.24 39.1202 37.9346 40.2971C37.6298 41.4717 37.0786 42.2805 36.3184 42.7183C35.5583 43.1561 34.582 43.227 33.4131 42.9011C32.2419 42.5746 30.9177 41.859 29.5232 40.7889C26.736 38.6502 23.7493 35.1581 21.2465 30.8124C18.7437 26.4667 17.2221 22.1308 16.7709 18.6467C16.5452 16.9034 16.5907 15.399 16.8961 14.2221C17.2009 13.0475 17.7521 12.2387 18.5123 11.8009C19.2725 11.3631 20.2487 11.2922 21.4176 11.618C22.5889 11.9445 23.913 12.6601 25.3075 13.7303C28.0947 15.869 31.0814 19.3611 33.5842 23.7068Z" stroke="white"/>
<path d="M33.5691 30.839C31.0478 35.174 28.0462 38.6533 25.25 40.7802C23.8509 41.8444 22.5237 42.5543 21.3511 42.8758C20.1808 43.1966 19.2048 43.1216 18.4466 42.6806C17.6883 42.2396 17.1405 41.4284 16.8407 40.2525C16.5404 39.0743 16.5012 37.5697 16.7344 35.8274C17.2004 32.3452 18.7405 28.0159 21.2618 23.6809C23.7831 19.3459 26.7847 15.8666 29.5809 13.7397C30.98 12.6756 32.3072 11.9656 33.4798 11.6441C34.6501 11.3233 35.626 11.3983 36.3843 11.8393C37.1426 12.2804 37.6904 13.0915 37.9902 14.2674C38.2905 15.4456 38.3297 16.9502 38.0965 18.6925C37.6304 22.1747 36.0904 26.504 33.5691 30.839Z" stroke="white"/>
<path d="M33.5691 30.839C31.0478 35.174 28.0462 38.6533 25.25 40.7802C23.8509 41.8444 22.5237 42.5543 21.3511 42.8758C20.1808 43.1966 19.2048 43.1216 18.4466 42.6806C17.6883 42.2396 17.1405 41.4284 16.8407 40.2525C16.5404 39.0743 16.5012 37.5697 16.7344 35.8274C17.2004 32.3452 18.7405 28.0159 21.2618 23.6809C23.7831 19.3459 26.7847 15.8666 29.5809 13.7397C30.98 12.6756 32.3072 11.9656 33.4798 11.6441C34.6501 11.3233 35.626 11.3983 36.3843 11.8393C37.1426 12.2804 37.6904 13.0915 37.9902 14.2674C38.2905 15.4456 38.3297 16.9502 38.0965 18.6925C37.6304 22.1747 36.0904 26.504 33.5691 30.839Z" stroke="white"/>
<path d="M33.5691 30.839C31.0478 35.174 28.0462 38.6533 25.25 40.7802C23.8509 41.8444 22.5237 42.5543 21.3511 42.8758C20.1808 43.1966 19.2048 43.1216 18.4466 42.6806C17.6883 42.2396 17.1405 41.4284 16.8407 40.2525C16.5404 39.0743 16.5012 37.5697 16.7344 35.8274C17.2004 32.3452 18.7405 28.0159 21.2618 23.6809C23.7831 19.3459 26.7847 15.8666 29.5809 13.7397C30.98 12.6756 32.3072 11.9656 33.4798 11.6441C34.6501 11.3233 35.626 11.3983 36.3843 11.8393C37.1426 12.2804 37.6904 13.0915 37.9902 14.2674C38.2905 15.4456 38.3297 16.9502 38.0965 18.6925C37.6304 22.1747 36.0904 26.504 33.5691 30.839Z" stroke="white"/>
<path d="M27.4876 34.3782C22.473 34.429 17.9479 33.6294 14.6901 32.3145C13.06 31.6566 11.7711 30.8793 10.8951 30.0362C10.0208 29.1947 9.58606 28.3177 9.57717 27.4405C9.56828 26.5633 9.98516 25.6778 10.8422 24.8187C11.701 23.9579 12.9739 23.1547 14.5903 22.4639C17.8208 21.0833 22.3287 20.1922 27.3433 20.1413C32.3579 20.0905 36.883 20.8901 40.1408 22.205C41.7709 22.8629 43.0598 23.6402 43.9358 24.4834C44.8101 25.3249 45.2448 26.2019 45.2537 27.079C45.2626 27.9562 44.8457 28.8418 43.9887 29.7009C43.1299 30.5616 41.857 31.3649 40.2406 32.0557C37.0101 33.4363 32.5022 34.3274 27.4876 34.3782Z" stroke="white"/>
<path d="M27.4876 34.3782C22.473 34.429 17.9479 33.6294 14.6901 32.3145C13.06 31.6566 11.7711 30.8793 10.8951 30.0362C10.0208 29.1947 9.58606 28.3177 9.57717 27.4405C9.56828 26.5633 9.98516 25.6778 10.8422 24.8187C11.701 23.9579 12.9739 23.1547 14.5903 22.4639C17.8208 21.0833 22.3287 20.1922 27.3433 20.1413C32.3579 20.0905 36.883 20.8901 40.1408 22.205C41.7709 22.8629 43.0598 23.6402 43.9358 24.4834C44.8101 25.3249 45.2448 26.2019 45.2537 27.079C45.2626 27.9562 44.8457 28.8418 43.9887 29.7009C43.1299 30.5616 41.857 31.3649 40.2406 32.0557C37.0101 33.4363 32.5022 34.3274 27.4876 34.3782Z" stroke="white"/>
<path d="M27.4876 34.3782C22.473 34.429 17.9479 33.6294 14.6901 32.3145C13.06 31.6566 11.7711 30.8793 10.8951 30.0362C10.0208 29.1947 9.58606 28.3177 9.57717 27.4405C9.56828 26.5633 9.98516 25.6778 10.8422 24.8187C11.701 23.9579 12.9739 23.1547 14.5903 22.4639C17.8208 21.0833 22.3287 20.1922 27.3433 20.1413C32.3579 20.0905 36.883 20.8901 40.1408 22.205C41.7709 22.8629 43.0598 23.6402 43.9358 24.4834C44.8101 25.3249 45.2448 26.2019 45.2537 27.079C45.2626 27.9562 44.8457 28.8418 43.9887 29.7009C43.1299 30.5616 41.857 31.3649 40.2406 32.0557C37.0101 33.4363 32.5022 34.3274 27.4876 34.3782Z" stroke="white"/>
<path d="M30.5226 27.1216C30.5226 28.7982 29.2037 30.1338 27.6053 30.1338C26.007 30.1338 24.688 28.7982 24.688 27.1216C24.688 25.445 26.007 24.1094 27.6053 24.1094C29.2037 24.1094 30.5226 25.445 30.5226 27.1216Z" stroke="#02ECD1"/>
</svg>
